<svg width="1440" height="1024" viewBox="0 0 1440 1024" fill="none" xmlns="http://www.w3.org/2000/svg">
<rect x="255" y="260" width="81" height="421" fill="#C4C4C4"/>
<rect width="82" height="421" transform="matrix(-1 0 0 1 775 259)" fill="#C4C4C4"/>
<rect x="278" y="316.26" width="81" height="339.153" transform="rotate(-43.9932 278 316.26)" fill="#C4C4C4"/>
<rect width="81.0409" height="339.325" transform="matrix(-0.719422 -0.694573 -0.694573 0.719422 751.988 315.411)" fill="#C4C4C4"/>
<path d="M775 794C860.93 794 943.341 759.864 1004.1 699.103C1064.86 638.341 1099 555.93 1099 470C1099 384.07 1064.86 301.659 1004.1 240.897C943.341 180.136 860.93 146 775 146L775 228.62C839.018 228.62 900.414 254.051 945.681 299.319C990.949 344.586 1016.38 405.982 1016.38 470C1016.38 534.018 990.949 595.414 945.681 640.681C900.414 685.949 839.018 711.38 775 711.38L775 794Z" fill="#383232"/>
</svg>
